<?xml version="1.0" encoding="UTF-8" standalone="no"?>
<!--Generator: Apple Native CoreSVG 175.5-->

<svg
   version="1.1"
   width="3300"
   height="2200"
   id="svg190"
   xmlns="http://www.w3.org/2000/svg"
   xmlns:svg="http://www.w3.org/2000/svg">
  <defs
     id="defs194" />
  <!--glyph: "", point size: 100.0, font version: "18.0d12e2", template writer version: "101"-->
  <g
     id="Notes"
     transform="translate(12.608687,28.819856)">
    <rect
       height="2200"
       id="artboard"
       style="opacity:1;fill:#ffffff"
       width="3300"
       x="0"
       y="0" />
    <line
       style="opacity:1;fill:none;stroke:#000000;stroke-width:0.5"
       x1="263"
       x2="3036"
       y1="292"
       y2="292"
       id="line3" />
    <text
       style="font-weight:bold;font-size:13px;font-family:sans-serif;fill:#000000;stroke:none"
       transform="translate(263,322)"
       id="text5">Weight/Scale Variations</text>
    <text
       style="font-size:13px;font-family:sans-serif;text-anchor:middle;fill:#000000;stroke:none"
       transform="translate(559.711,322)"
       id="text7">Ultralight</text>
    <text
       style="font-size:13px;font-family:sans-serif;text-anchor:middle;fill:#000000;stroke:none"
       transform="translate(856.422,322)"
       id="text9">Thin</text>
    <text
       style="font-size:13px;font-family:sans-serif;text-anchor:middle;fill:#000000;stroke:none"
       transform="translate(1153.13,322)"
       id="text11">Light</text>
    <text
       style="font-size:13px;font-family:sans-serif;text-anchor:middle;fill:#000000;stroke:none"
       transform="translate(1449.84,322)"
       id="text13">Regular</text>
    <text
       style="font-size:13px;font-family:sans-serif;text-anchor:middle;fill:#000000;stroke:none"
       transform="translate(1746.56,322)"
       id="text15">Medium</text>
    <text
       style="font-size:13px;font-family:sans-serif;text-anchor:middle;fill:#000000;stroke:none"
       transform="translate(2043.27,322)"
       id="text17">Semibold</text>
    <text
       style="font-size:13px;font-family:sans-serif;text-anchor:middle;fill:#000000;stroke:none"
       transform="translate(2339.98,322)"
       id="text19">Bold</text>
    <text
       style="font-size:13px;font-family:sans-serif;text-anchor:middle;fill:#000000;stroke:none"
       transform="translate(2636.69,322)"
       id="text21">Heavy</text>
    <text
       style="font-size:13px;font-family:sans-serif;text-anchor:middle;fill:#000000;stroke:none"
       transform="translate(2933.4,322)"
       id="text23">Black</text>
    <line
       style="opacity:1;fill:none;stroke:#000000;stroke-width:0.5"
       x1="263"
       x2="3036"
       y1="1903"
       y2="1903"
       id="line25" />
    <g
       transform="translate(263,1933)"
       id="g29">
      <path
         d="m 9.24805,0.830078 c 4.30665,0 7.89065,-3.574218 7.89065,-7.880858 0,-4.30662 -3.5938,-7.88082 -7.90042,-7.88082 -4.29687,0 -7.87109,3.5742 -7.87109,7.88082 0,4.30664 3.58398,7.880858 7.88086,7.880858 z m 0,-1.484375 c -3.54493,0 -6.37696,-2.841793 -6.37696,-6.396483 0,-3.55472 2.82227,-6.39652 6.36719,-6.39652 3.55472,0 6.40622,2.8418 6.40622,6.39652 0,3.55469 -2.8418,6.396483 -6.39645,6.396483 z M 5.6543,-7.05078 c 0,0.42969 0.30273,0.72266 0.75195,0.72266 h 2.09961 v 2.11914 c 0,0.43945 0.29297,0.74218 0.72266,0.74218 0.44921,0 0.74218,-0.30273 0.74218,-0.74218 v -2.11914 h 2.1191 c 0.4395,0 0.7422,-0.29297 0.7422,-0.72266 0,-0.43945 -0.3027,-0.74219 -0.7422,-0.74219 H 9.9707 v -2.10937 c 0,-0.44926 -0.29297,-0.75196 -0.74218,-0.75196 -0.42969,0 -0.72266,0.3027 -0.72266,0.75196 v 2.10937 H 6.40625 c -0.44922,0 -0.75195,0.30274 -0.75195,0.74219 z"
         id="path27" />
    </g>
    <g
       transform="translate(281.867,1933)"
       id="g33">
      <path
         d="m 11.709,2.91016 c 5.4492,0 9.9609,-4.52149 9.9609,-9.96094 0,-5.44922 -4.5215,-9.96092 -9.9707,-9.96092 -5.43943,0 -9.95115,4.5117 -9.95115,9.96092 0,5.43945 4.52148,9.96094 9.96095,9.96094 z m 0,-1.66016 c -4.60939,0 -8.29103,-3.69141 -8.29103,-8.30078 0,-4.60942 3.67187,-8.30082 8.28123,-8.30082 4.6094,0 8.3106,3.6914 8.3106,8.30082 0,4.60937 -3.6914,8.30078 -8.3008,8.30078 z M 7.17773,-7.05078 c 0,0.47851 0.33204,0.80078 0.83008,0.80078 h 2.87109 v 2.88086 c 0,0.48828 0.332,0.83008 0.8106,0.83008 0.4882,0 0.83,-0.33203 0.83,-0.83008 V -6.25 h 2.8809 c 0.4883,0 0.8301,-0.32227 0.8301,-0.80078 0,-0.48828 -0.3418,-0.83008 -0.8301,-0.83008 H 12.5195 V -10.752 c 0,-0.498 -0.3418,-0.8398 -0.83,-0.8398 -0.4786,0 -0.8106,0.3418 -0.8106,0.8398 v 2.87114 H 8.00781 c -0.49804,0 -0.83008,0.3418 -0.83008,0.83008 z"
         id="path31" />
    </g>
    <g
       transform="translate(305.646,1933)"
       id="g37">
      <path
         d="m 14.9707,5.66406 c 6.9629,0 12.7246,-5.7617162 12.7246,-12.71484 0,-6.96292 -5.7715,-12.72462 -12.7344,-12.72462 -6.95309,0 -12.70504,5.7617 -12.70504,12.72462 0,6.9531238 5.76172,12.71484 12.71484,12.71484 z m 0,-1.8164 c -6.03515,0 -10.88867,-4.86328 -10.88867,-10.89844 0,-6.04492 4.84375,-10.89842 10.87887,-10.89842 6.045,0 10.9082,4.8535 10.9082,10.89842 0,6.03516 -4.8535,10.89844 -10.8984,10.89844 z M 9.19922,-7.05078 c 0,0.51758 0.37109,0.8789 0.91798,0.8789 h 3.9453 v 3.95508 c 0,0.53711 0.3711,0.91797 0.8887,0.91797 0.5371,0 0.9082,-0.37109 0.9082,-0.91797 v -3.95508 h 3.9551 c 0.5371,0 0.9179,-0.36132 0.9179,-0.8789 0,-0.54688 -0.3711,-0.91797 -0.9179,-0.91797 h -3.9551 v -3.94535 c 0,-0.5468 -0.3711,-0.9277 -0.9082,-0.9277 -0.5176,0 -0.8887,0.3809 -0.8887,0.9277 v 3.94535 h -3.9453 c -0.54689,0 -0.91798,0.37109 -0.91798,0.91797 z"
         id="path35" />
    </g>
    <text
       style="font-weight:bold;font-size:13px;font-family:sans-serif;fill:#000000;stroke:none"
       transform="translate(263,1953)"
       id="text39">Design Variations</text>
    <text
       style="font-size:13px;font-family:sans-serif;fill:#000000;stroke:none"
       transform="translate(263,1971)"
       id="text41">Symbols are supported in up to nine weights and three scales.</text>
    <text
       style="font-size:13px;font-family:sans-serif;fill:#000000;stroke:none"
       transform="translate(263,1989)"
       id="text43">For optimal layout with text and other symbols, vertically align</text>
    <text
       style="font-size:13px;font-family:sans-serif;fill:#000000;stroke:none"
       transform="translate(263,2007)"
       id="text45">symbols with the adjacent text.</text>
    <line
       style="opacity:1;fill:none;stroke:#00aeef;stroke-width:0.5"
       x1="776"
       x2="776"
       y1="1919"
       y2="1933"
       id="line47" />
    <g
       transform="translate(776,1933)"
       id="g51">
      <path
         d="m 3.31055,0.15625 c 0.51757,0 0.77148,-0.1953125 0.95703,-0.742188 L 5.52734,-4.0332 h 5.76176 l 1.2597,3.447262 c 0.1856,0.5468755 0.4395,0.742188 0.9473,0.742188 0.5176,0 0.8496,-0.3125 0.8496,-0.800781 0,-0.166016 -0.0293,-0.322266 -0.1074,-0.527349 L 9.6582,-13.3691 c -0.22461,-0.5957 -0.625,-0.8985 -1.25,-0.8985 -0.60547,0 -1.01562,0.293 -1.23047,0.8887 L 2.59766,-1.16211 c -0.07813,0.205079 -0.10743,0.361329 -0.10743,0.527344 0,0.488282 0.3125,0.791016 0.82032,0.791016 z m 2.69531,-5.67383 2.37305,-6.57222 h 0.04882 l 2.37307,6.57222 z"
         id="path49" />
    </g>
    <line
       style="opacity:1;fill:none;stroke:#00aeef;stroke-width:0.5"
       x1="793.19702"
       x2="793.19702"
       y1="1919"
       y2="1933"
       id="line53" />
    <text
       style="font-weight:bold;font-size:13px;font-family:sans-serif;fill:#000000;stroke:none"
       transform="translate(776,1953)"
       id="text55">Margins</text>
    <text
       style="font-size:13px;font-family:sans-serif;fill:#000000;stroke:none"
       transform="translate(776,1971)"
       id="text57">Leading and trailing margins on the left and right side of each symbol</text>
    <text
       style="font-size:13px;font-family:sans-serif;fill:#000000;stroke:none"
       transform="translate(776,1989)"
       id="text59">can be adjusted by modifying the x-location of the margin guidelines.</text>
    <text
       style="font-size:13px;font-family:sans-serif;fill:#000000;stroke:none"
       transform="translate(776,2007)"
       id="text61">Modifications are automatically applied proportionally to all</text>
    <text
       style="font-size:13px;font-family:sans-serif;fill:#000000;stroke:none"
       transform="translate(776,2025)"
       id="text63">scales and weights.</text>
    <g
       transform="translate(1289,1933)"
       id="g67">
      <path
         d="M 2.8418,1.86523 4.54102,3.57422 C 5.40039,4.44336 6.38672,4.38477 7.31445,3.35938 L 18.0078,-8.42773 17.041,-9.4043 6.42578,2.27539 C 6.07422,2.67578 5.74219,2.77344 5.27344,2.30469 L 4.10156,1.14258 C 3.63281,0.683594 3.74023,0.341797 4.14062,-0.0195312 L 15.6152,-10.8203 14.6387,-11.7871 3.04688,-0.898438 C 2.06055,0.0195312 1.98242,0.996094 2.8418,1.86523 Z M 9.25781,-16.3281 c -0.41992,0.4101 -0.44922,0.9863 -0.21484,1.3769 0.23437,0.3614 0.69336,0.5957 1.33793,0.4297 1.4648,-0.3418 2.9882,-0.4004 4.414,0.5371 l -0.5859,1.4551 c -0.3418,0.8301 -0.166,1.416 0.3711,1.9629 l 2.2949,2.31445 c 0.4883,0.48828 0.8984,0.50781 1.4648,0.41015 l 1.0645,-0.19531 0.6641,0.67383 -0.0391,0.55664 c -0.0391,0.49805 0.0879,0.87891 0.5762,1.35742 l 0.7617,0.74219 c 0.4785,0.47851 1.0937,0.50781 1.5625,0.03906 l 2.9101,-2.91992 c 0.4688,-0.46875 0.4493,-1.06445 -0.0293,-1.54297 l -0.7714,-0.76172 c -0.4786,-0.47852 -0.8496,-0.63472 -1.3282,-0.59572 l -0.5761,0.0488 -0.6446,-0.6347 0.2442,-1.1231 c 0.1269,-0.5664 -0.0293,-1.0058 -0.6153,-1.5918 l -2.1972,-2.1875 c -3.3399,-3.3203 -7.7735,-3.2422 -10.66409,-0.3515 z m 1.49419,0.3711 c 2.4316,-1.7774 5.7226,-1.4746 7.9492,0.7519 l 2.4316,2.4121 c 0.2344,0.2344 0.2734,0.42 0.2051,0.7618 l -0.3223,1.4843 1.5039,1.4844 0.9864,-0.05859 c 0.2539,-0.00977 0.332,0.00976 0.5273,0.20507 l 0.5762,0.57618 -2.4414,2.4414 -0.5762,-0.57617 C 21.3965,-6.66992 21.3672,-6.74805 21.377,-7.01172 l 0.0683,-0.97656 -1.4941,-1.48438 -1.5235,0.25391 c -0.3222,0.06836 -0.4687,0.03906 -0.7129,-0.19531 L 15.7129,-11.416 c -0.2539,-0.2344 -0.2832,-0.4004 -0.127,-0.7715 l 0.8789,-2.0898 c -1.5625,-1.4551 -3.5937,-2.0801 -5.625,-1.4844 -0.1562,0.039 -0.2148,-0.0879 -0.0878,-0.1953 z"
         id="path65" />
    </g>
    <text
       style="font-weight:bold;font-size:13px;font-family:sans-serif;fill:#000000;stroke:none"
       transform="translate(1289,1953)"
       id="text69">Exporting</text>
    <text
       style="font-size:13px;font-family:sans-serif;fill:#000000;stroke:none"
       transform="translate(1289,1971)"
       id="text71">Symbols should be outlined when exporting to ensure the</text>
    <text
       style="font-size:13px;font-family:sans-serif;fill:#000000;stroke:none"
       transform="translate(1289,1989)"
       id="text73">design is preserved when submitting to Xcode.</text>
    <text
       id="template-version"
       style="font-size:13px;font-family:sans-serif;text-anchor:end;fill:#000000;stroke:none"
       transform="translate(3036,1933)">Template v.4.0</text>
    <text
       style="font-size:13px;font-family:sans-serif;text-anchor:end;fill:#000000;stroke:none"
       transform="translate(3036,1951)"
       id="text76">Requires Xcode 14 or greater</text>
    <text
       id="descriptive-name"
       style="font-size:13px;font-family:sans-serif;text-anchor:end;fill:#000000;stroke:none"
       transform="translate(3036,1969)">Generated from shoeprints_left.fill</text>
    <text
       style="font-size:13px;font-family:sans-serif;text-anchor:end;fill:#000000;stroke:none"
       transform="translate(3036,1987)"
       id="text79">Typeset at 100 points</text>
    <text
       style="font-size:13px;font-family:sans-serif;fill:#000000;stroke:none"
       transform="translate(263,726)"
       id="text81">Small</text>
    <text
       style="font-size:13px;font-family:sans-serif;fill:#000000;stroke:none"
       transform="translate(263,1156)"
       id="text83">Medium</text>
    <text
       style="font-size:13px;font-family:sans-serif;fill:#000000;stroke:none"
       transform="translate(263,1586)"
       id="text85">Large</text>
  </g>
  <g
     id="Guides">
    <g
       id="H-reference"
       style="fill:#27aae1;stroke:none"
       transform="translate(339,696)">
      <path
         d="M 0.993654,0 H 3.63775 L 29.3281,-67.1323 h 0.7022 V -70.459 H 28.1226 Z M 11.6885,-24.4799 h 35.293 l -0.75,-2.2486 H 12.4385 Z M 55.1196,0 h 2.6441 L 30.6382,-70.459 h -1.2056 v 3.3267 z"
         id="path88" />
    </g>
    <line
       id="Baseline-S"
       style="opacity:1;fill:none;stroke:#27aae1;stroke-width:0.5"
       x1="263"
       x2="3036"
       y1="696"
       y2="696" />
    <line
       id="Capline-S"
       style="opacity:1;fill:none;stroke:#27aae1;stroke-width:0.5"
       x1="263"
       x2="3036"
       y1="625.54102"
       y2="625.54102" />
    <g
       id="g95"
       style="fill:#27aae1;stroke:none"
       transform="translate(339,1126)">
      <path
         d="M 0.993654,0 H 3.63775 L 29.3281,-67.1323 h 0.7022 V -70.459 H 28.1226 Z M 11.6885,-24.4799 h 35.293 l -0.75,-2.2486 H 12.4385 Z M 55.1196,0 h 2.6441 L 30.6382,-70.459 h -1.2056 v 3.3267 z"
         id="path93" />
    </g>
    <line
       id="Baseline-M"
       style="opacity:1;fill:none;stroke:#27aae1;stroke-width:0.5"
       x1="263"
       x2="3036"
       y1="1126"
       y2="1126" />
    <line
       id="Capline-M"
       style="opacity:1;fill:none;stroke:#27aae1;stroke-width:0.5"
       x1="263"
       x2="3036"
       y1="1055.54"
       y2="1055.54" />
    <g
       id="g101"
       style="fill:#27aae1;stroke:none"
       transform="translate(339,1556)">
      <path
         d="M 0.993654,0 H 3.63775 L 29.3281,-67.1323 h 0.7022 V -70.459 H 28.1226 Z M 11.6885,-24.4799 h 35.293 l -0.75,-2.2486 H 12.4385 Z M 55.1196,0 h 2.6441 L 30.6382,-70.459 h -1.2056 v 3.3267 z"
         id="path99" />
    </g>
    <line
       id="Baseline-L"
       style="opacity:1;fill:none;stroke:#27aae1;stroke-width:0.5"
       x1="263"
       x2="3036"
       y1="1556"
       y2="1556" />
    <line
       id="Capline-L"
       style="opacity:1;fill:none;stroke:#27aae1;stroke-width:0.5"
       x1="263"
       x2="3036"
       y1="1485.54"
       y2="1485.54" />
    <line
       id="left-margin-Regular-M"
       style="opacity:1;fill:none;stroke:#00aeef;stroke-width:0.5"
       x1="1392.14"
       x2="1392.14"
       y1="1030.79"
       y2="1150.12" />
    <line
       id="right-margin-Regular-M"
       style="opacity:1;fill:none;stroke:#00aeef;stroke-width:0.5"
       x1="1507.55"
       x2="1507.55"
       y1="1030.79"
       y2="1150.12" />
  </g>
  <g
     id="Symbols">
    <g
       id="Regular-M"
       transform="translate(1392.14,1126)">
      <path
         id="path1479"
         style="display:inline"
         d="m 56.832488,-76.407645 c -10.60114,0 -20.183594,16.017339 -20.183594,28.457031 0,5.991704 2.014883,17.727541 6.699219,27.113281 h 26.958984 c 4.68432,-9.38574 6.699219,-21.121577 6.699219,-27.113281 0,-12.439692 -9.583204,-28.457031 -20.173828,-28.457031 z m -11.369141,62.238281 c -0.2492,1.163682 -0.300781,2.721985 -0.300781,3.730469 0,10.73542673 4.070884,18.3164056 11.722656,18.3164056 7.589472,0 11.658203,-7.58097887 11.658203,-18.3164056 0,-1.008484 -0.103281,-2.566787 -0.300781,-3.730469 z" />
    </g>
  </g>
</svg>
